<?xml version="1.0" encoding="UTF-8" standalone="no"?>
<!DOCTYPE svg PUBLIC "-//W3C//DTD SVG 1.1//EN"
 "http://www.w3.org/Graphics/SVG/1.1/DTD/svg11.dtd">
<!-- Generated by graphviz version 2.43.0 (0)
 -->
<!-- Title: G Pages: 1 -->
<svg width="2902pt" height="116pt"
 viewBox="0.00 0.00 2902.28 116.00" xmlns="http://www.w3.org/2000/svg" xmlns:xlink="http://www.w3.org/1999/xlink">
<g id="graph0" class="graph" transform="scale(1 1) rotate(0) translate(4 112)">
<title>G</title>
<polygon fill="white" stroke="transparent" points="-4,4 -4,-112 2898.28,-112 2898.28,4 -4,4"/>
<!-- Usuário -->
<g id="node1" class="node">
<title>Usuário</title>
<ellipse fill="none" stroke="black" cx="1497.39" cy="-90" rx="38.19" ry="18"/>
<text text-anchor="middle" x="1497.39" y="-86.3" font-family="Times,serif" font-size="14.00">Usuário</text>
</g>
<!-- Cadastrar Usuário -->
<g id="node4" class="node">
<title>Cadastrar Usuário</title>
<ellipse fill="none" stroke="black" cx="114.39" cy="-18" rx="74.99" ry="18"/>
<text text-anchor="middle" x="114.39" y="-14.3" font-family="Times,serif" font-size="14.00">Cadastrar Usuário</text>
</g>
<!-- Usuário&#45;&gt;Cadastrar Usuário -->
<g id="edge1" class="edge">
<title>Usuário&#45;&gt;Cadastrar Usuário</title>
<path fill="none" stroke="black" d="M1459.11,-88.26C1271.93,-84.52 451.88,-66.62 198.39,-36 191.28,-35.14 183.88,-34 176.54,-32.72"/>
<polygon fill="black" stroke="black" points="177.07,-29.26 166.61,-30.9 175.81,-36.15 177.07,-29.26"/>
</g>
<!-- Realizar Postagens -->
<g id="node5" class="node">
<title>Realizar Postagens</title>
<ellipse fill="none" stroke="black" cx="1592.39" cy="-18" rx="77.19" ry="18"/>
<text text-anchor="middle" x="1592.39" y="-14.3" font-family="Times,serif" font-size="14.00">Realizar Postagens</text>
</g>
<!-- Usuário&#45;&gt;Realizar Postagens -->
<g id="edge2" class="edge">
<title>Usuário&#45;&gt;Realizar Postagens</title>
<path fill="none" stroke="black" d="M1517.07,-74.5C1529.98,-64.99 1547.11,-52.37 1561.77,-41.56"/>
<polygon fill="black" stroke="black" points="1564.09,-44.2 1570.07,-35.45 1559.94,-38.56 1564.09,-44.2"/>
</g>
<!-- Interagir com outras postagens -->
<g id="node6" class="node">
<title>Interagir com outras postagens</title>
<ellipse fill="none" stroke="black" cx="1808.39" cy="-18" rx="120.48" ry="18"/>
<text text-anchor="middle" x="1808.39" y="-14.3" font-family="Times,serif" font-size="14.00">Interagir com outras postagens</text>
</g>
<!-- Usuário&#45;&gt;Interagir com outras postagens -->
<g id="edge3" class="edge">
<title>Usuário&#45;&gt;Interagir com outras postagens</title>
<path fill="none" stroke="black" d="M1531.26,-81.38C1579.76,-70.46 1670.2,-50.1 1734.57,-35.62"/>
<polygon fill="black" stroke="black" points="1735.68,-38.95 1744.67,-33.34 1734.14,-32.12 1735.68,-38.95"/>
</g>
<!-- Consultar eventos de anime -->
<g id="node7" class="node">
<title>Consultar eventos de anime</title>
<ellipse fill="none" stroke="black" cx="2055.39" cy="-18" rx="109.38" ry="18"/>
<text text-anchor="middle" x="2055.39" y="-14.3" font-family="Times,serif" font-size="14.00">Consultar eventos de anime</text>
</g>
<!-- Usuário&#45;&gt;Consultar eventos de anime -->
<g id="edge4" class="edge">
<title>Usuário&#45;&gt;Consultar eventos de anime</title>
<path fill="none" stroke="black" d="M1534.22,-84.86C1609.85,-76.28 1788.08,-55.75 1937.39,-36 1947.01,-34.73 1957.06,-33.35 1967.07,-31.95"/>
<polygon fill="black" stroke="black" points="1967.62,-35.41 1977.04,-30.55 1966.65,-28.48 1967.62,-35.41"/>
</g>
<!-- Acompanhar Status de Documentos -->
<g id="node8" class="node">
<title>Acompanhar Status de Documentos</title>
<ellipse fill="none" stroke="black" cx="345.39" cy="-18" rx="138.38" ry="18"/>
<text text-anchor="middle" x="345.39" y="-14.3" font-family="Times,serif" font-size="14.00">Acompanhar Status de Documentos</text>
</g>
<!-- Usuário&#45;&gt;Acompanhar Status de Documentos -->
<g id="edge5" class="edge">
<title>Usuário&#45;&gt;Acompanhar Status de Documentos</title>
<path fill="none" stroke="black" d="M1458.99,-87.84C1325.39,-83.62 868.46,-67.63 492.39,-36 479.1,-34.88 465.16,-33.52 451.38,-32.06"/>
<polygon fill="black" stroke="black" points="451.7,-28.57 441.38,-30.97 450.94,-35.53 451.7,-28.57"/>
</g>
<!-- Buscar por usuários -->
<g id="node9" class="node">
<title>Buscar por usuários</title>
<ellipse fill="none" stroke="black" cx="2263.39" cy="-18" rx="81.49" ry="18"/>
<text text-anchor="middle" x="2263.39" y="-14.3" font-family="Times,serif" font-size="14.00">Buscar por usuários</text>
</g>
<!-- Usuário&#45;&gt;Buscar por usuários -->
<g id="edge6" class="edge">
<title>Usuário&#45;&gt;Buscar por usuários</title>
<path fill="none" stroke="black" d="M1535.66,-87.46C1638.94,-82.97 1931.84,-68.19 2173.39,-36 2180.73,-35.02 2188.38,-33.84 2195.99,-32.55"/>
<polygon fill="black" stroke="black" points="2196.68,-35.98 2205.93,-30.82 2195.47,-29.09 2196.68,-35.98"/>
</g>
<!-- Configurar preferências de privacidade -->
<g id="node10" class="node">
<title>Configurar preferências de privacidade</title>
<ellipse fill="none" stroke="black" cx="2511.39" cy="-18" rx="148.67" ry="18"/>
<text text-anchor="middle" x="2511.39" y="-14.3" font-family="Times,serif" font-size="14.00">Configurar preferências de privacidade</text>
</g>
<!-- Usuário&#45;&gt;Configurar preferências de privacidade -->
<g id="edge7" class="edge">
<title>Usuário&#45;&gt;Configurar preferências de privacidade</title>
<path fill="none" stroke="black" d="M1535.4,-87.26C1655.54,-81.64 2037.74,-62.74 2353.39,-36 2367.57,-34.8 2382.46,-33.39 2397.18,-31.91"/>
<polygon fill="black" stroke="black" points="2397.75,-35.37 2407.34,-30.87 2397.04,-28.41 2397.75,-35.37"/>
</g>
<!-- Enviar mensagens privadas -->
<g id="node11" class="node">
<title>Enviar mensagens privadas</title>
<ellipse fill="none" stroke="black" cx="2786.39" cy="-18" rx="107.78" ry="18"/>
<text text-anchor="middle" x="2786.39" y="-14.3" font-family="Times,serif" font-size="14.00">Enviar mensagens privadas</text>
</g>
<!-- Usuário&#45;&gt;Enviar mensagens privadas -->
<g id="edge8" class="edge">
<title>Usuário&#45;&gt;Enviar mensagens privadas</title>
<path fill="none" stroke="black" d="M1535.68,-88.65C1682.71,-86.99 2225.08,-78.22 2669.39,-36 2679.87,-35 2690.85,-33.72 2701.71,-32.32"/>
<polygon fill="black" stroke="black" points="2702.18,-35.78 2711.62,-30.99 2701.25,-28.85 2702.18,-35.78"/>
</g>
<!-- Explorar comunidades temáticas -->
<g id="node12" class="node">
<title>Explorar comunidades temáticas</title>
<ellipse fill="none" stroke="black" cx="628.39" cy="-18" rx="126.98" ry="18"/>
<text text-anchor="middle" x="628.39" y="-14.3" font-family="Times,serif" font-size="14.00">Explorar comunidades temáticas</text>
</g>
<!-- Usuário&#45;&gt;Explorar comunidades temáticas -->
<g id="edge9" class="edge">
<title>Usuário&#45;&gt;Explorar comunidades temáticas</title>
<path fill="none" stroke="black" d="M1459.51,-86.98C1350.95,-81.03 1029.43,-62.34 763.39,-36 751.73,-34.85 739.52,-33.5 727.41,-32.08"/>
<polygon fill="black" stroke="black" points="727.61,-28.58 717.27,-30.87 726.79,-35.53 727.61,-28.58"/>
</g>
<!-- Participar de eventos virtuais -->
<g id="node13" class="node">
<title>Participar de eventos virtuais</title>
<ellipse fill="none" stroke="black" cx="886.39" cy="-18" rx="113.98" ry="18"/>
<text text-anchor="middle" x="886.39" y="-14.3" font-family="Times,serif" font-size="14.00">Participar de eventos virtuais</text>
</g>
<!-- Usuário&#45;&gt;Participar de eventos virtuais -->
<g id="edge10" class="edge">
<title>Usuário&#45;&gt;Participar de eventos virtuais</title>
<path fill="none" stroke="black" d="M1460.31,-85.35C1378.72,-77.22 1177.49,-56.74 1009.39,-36 999.18,-34.74 988.49,-33.36 977.87,-31.94"/>
<polygon fill="black" stroke="black" points="978.1,-28.44 967.73,-30.58 977.17,-35.38 978.1,-28.44"/>
</g>
<!-- Visualizar estatísticas de interações -->
<g id="node14" class="node">
<title>Visualizar estatísticas de interações</title>
<ellipse fill="none" stroke="black" cx="1154.39" cy="-18" rx="135.68" ry="18"/>
<text text-anchor="middle" x="1154.39" y="-14.3" font-family="Times,serif" font-size="14.00">Visualizar estatísticas de interações</text>
</g>
<!-- Usuário&#45;&gt;Visualizar estatísticas de interações -->
<g id="edge11" class="edge">
<title>Usuário&#45;&gt;Visualizar estatísticas de interações</title>
<path fill="none" stroke="black" d="M1462.93,-81.97C1410.04,-71.17 1307.37,-50.22 1235.03,-35.46"/>
<polygon fill="black" stroke="black" points="1235.53,-31.99 1225.04,-33.42 1234.13,-38.85 1235.53,-31.99"/>
</g>
<!-- Configurar notificações -->
<g id="node15" class="node">
<title>Configurar notificações</title>
<ellipse fill="none" stroke="black" cx="1402.39" cy="-18" rx="94.48" ry="18"/>
<text text-anchor="middle" x="1402.39" y="-14.3" font-family="Times,serif" font-size="14.00">Configurar notificações</text>
</g>
<!-- Usuário&#45;&gt;Configurar notificações -->
<g id="edge12" class="edge">
<title>Usuário&#45;&gt;Configurar notificações</title>
<path fill="none" stroke="black" d="M1477.71,-74.5C1464.89,-65.06 1447.91,-52.54 1433.32,-41.79"/>
<polygon fill="black" stroke="black" points="1435.18,-38.81 1425.05,-35.7 1431.03,-44.45 1435.18,-38.81"/>
</g>
<!-- Coordenador de Análise -->
<g id="node2" class="node">
<title>Coordenador de Análise</title>
<ellipse fill="none" stroke="black" cx="345.39" cy="-90" rx="96.38" ry="18"/>
<text text-anchor="middle" x="345.39" y="-86.3" font-family="Times,serif" font-size="14.00">Coordenador de Análise</text>
</g>
<!-- Coordenador de Análise&#45;&gt;Acompanhar Status de Documentos -->
<g id="edge13" class="edge">
<title>Coordenador de Análise&#45;&gt;Acompanhar Status de Documentos</title>
<path fill="none" stroke="black" d="M345.39,-71.7C345.39,-63.98 345.39,-54.71 345.39,-46.11"/>
<polygon fill="black" stroke="black" points="348.89,-46.1 345.39,-36.1 341.89,-46.1 348.89,-46.1"/>
</g>
<!-- Administrador da Plataforma -->
<g id="node3" class="node">
<title>Administrador da Plataforma</title>
<ellipse fill="none" stroke="black" cx="114.39" cy="-90" rx="114.28" ry="18"/>
<text text-anchor="middle" x="114.39" y="-86.3" font-family="Times,serif" font-size="14.00">Administrador da Plataforma</text>
</g>
<!-- Administrador da Plataforma&#45;&gt;Cadastrar Usuário -->
<g id="edge14" class="edge">
<title>Administrador da Plataforma&#45;&gt;Cadastrar Usuário</title>
<path fill="none" stroke="black" d="M114.39,-71.7C114.39,-63.98 114.39,-54.71 114.39,-46.11"/>
<polygon fill="black" stroke="black" points="117.89,-46.1 114.39,-36.1 110.89,-46.1 117.89,-46.1"/>
</g>
</g>
</svg>
